<svg xmlns="http://www.w3.org/2000/svg" fill="none" viewBox="0 0 24 24" id="Airline-Seat-Recline-Extra-Fill--Streamline-Rounded-Fill-Material" height="24" width="24">
  <desc>
    Airline Seat Recline Extra Fill Streamline Icon: https://streamlinehq.com
  </desc>
  <path fill="#000000" d="M7.5 5.5c-0.48335 0 -0.89165 -0.16665 -1.225 -0.5 -0.33335 -0.333335 -0.5 -0.741665 -0.5 -1.225 0 -0.483335 0.16665 -0.9 0.5 -1.25C6.60835 2.175 7.01665 2 7.5 2c0.48335 0 0.9 0.175 1.25 0.525 0.35 0.35 0.525 0.766665 0.525 1.25 0 0.483335 -0.175 0.891665 -0.525 1.225 -0.35 0.33335 -0.76665 0.5 -1.25 0.5Zm5.675 14H6.9c-0.43335 0 -0.80415 -0.14165 -1.1125 -0.425S5.28335 18.43335 5.2 18L3.05 7.275c-0.05 -0.23335 0.004165 -0.44165 0.1625 -0.625 0.15833 -0.18335 0.354165 -0.275 0.5875 -0.275 0.18333 0 0.35 0.05835 0.5 0.175 0.15 0.11665 0.241665 0.26665 0.275 0.45l2.05 11h6.55c0.21665 0 0.39585 0.07085 0.5375 0.2125s0.2125 0.32085 0.2125 0.5375c0 0.21665 -0.07085 0.39585 -0.2125 0.5375S13.39165 19.5 13.175 19.5Zm6.375 1.85 -2.575 -4.475h-7.85c-0.43335 0 -0.82085 -0.125 -1.1625 -0.375 -0.34165 -0.25 -0.55415 -0.58335 -0.6375 -1L6.15 9.3c-0.15 -0.76665 0.04165 -1.44585 0.575 -2.0375s1.2 -0.8875 2 -0.8875c0.58335 0 1.08335 0.1875 1.5 0.5625 0.41665 0.375 0.68335 0.84585 0.8 1.4125l1.15 6h4.15c0.33335 0 0.625 0.1 0.875 0.3 0.25 0.2 0.45835 0.44165 0.625 0.725l3.05 5.225c0.1 0.18335 0.12085 0.375 0.0625 0.575 -0.05835 0.2 -0.17915 0.35 -0.3625 0.45 -0.18335 0.1 -0.375 0.125 -0.575 0.075 -0.2 -0.05 -0.35 -0.16665 -0.45 -0.35Z" stroke-width="0.5"></path>
</svg>